<svg width="239" height="27" xmlns="http://www.w3.org/2000/svg" fill="none">

 <g>
  <title>Layer 1</title>
  <path stroke="null" id="svg_1" fill="#1A333F" d="m68.3409,11.6421c-0.3238,-2.41197 -2.267,-3.90345 -5.5738,-3.90345c-3.3495,0 -5.5569,1.55114 -5.5483,4.07385c-0.0086,1.9602 1.2272,3.2301 3.784,3.7415l2.2671,0.4517c1.142,0.2301 1.6619,0.6477 1.679,1.304c-0.0171,0.7755 -0.8608,1.3295 -2.1307,1.3295c-1.2955,0 -2.1563,-0.554 -2.3779,-1.6193l-3.571,0.1875c0.3409,2.5057 2.4716,4.0483 5.9404,4.0483c3.392,0 5.821,-1.7301 5.8295,-4.3125c-0.0085,-1.892 -1.2443,-3.0256 -3.7841,-3.5455l-2.3693,-0.4772c-1.2187,-0.2642 -1.6705,-0.6818 -1.6619,-1.3125c-0.0086,-0.7841 0.8778,-1.2955 2.0028,-1.2955c1.2614,0 2.0114,0.6904 2.1904,1.5341l3.3238,-0.2045z"/>
  <path id="svg_2" fill="#1A333F" d="m70.9254,25.9091l3.6307,0l0,-7.0057l0.1108,0c0.5029,1.0909 1.6023,2.3097 3.7159,2.3097c2.983,0 5.3097,-2.3608 5.3097,-6.7415c0,-4.49999 -2.429,-6.73295 -5.3012,-6.73295c-2.1903,0 -3.2386,1.30398 -3.7244,2.36935l-0.1619,0l0,-2.1989l-3.5796,0l0,18zm3.554,-11.4545c0,-2.3353 0.9886,-3.8267 2.7529,-3.8267c1.7982,0 2.7528,1.5596 2.7528,3.8267c0,2.2841 -0.9716,3.8693 -2.7528,3.8693c-1.7472,0 -2.7529,-1.5341 -2.7529,-3.8693z"/>
  <path id="svg_3" fill="#1A333F" d="m89.8459,21.2472c1.9346,0 3.1875,-0.8438 3.8267,-2.0625l0.1023,0l0,1.8153l3.4431,0l0,-8.8295c0,-3.11935 -2.642,-4.43185 -5.5568,-4.43185c-3.1363,0 -5.1988,1.5 -5.7017,3.88635l3.358,0.2727c0.2471,-0.8693 1.0227,-1.5085 2.3267,-1.5085c1.2358,0 1.9432,0.6222 1.9432,1.696l0,0.0512c0,0.8437 -0.8949,0.9545 -3.1705,1.1761c-2.5909,0.2387 -4.9176,1.108 -4.9176,4.0313c0,2.5909 1.8494,3.9034 4.3466,3.9034zm1.0398,-2.5057c-1.1165,0 -1.9177,-0.5199 -1.9177,-1.5171c0,-1.0227 0.8438,-1.5255 2.1222,-1.7045c0.7926,-0.1108 2.0881,-0.2983 2.5227,-0.5881l0,1.3892c0,1.3722 -1.1335,2.4205 -2.7272,2.4205z"/>
  <path id="svg_4" fill="#0E353B" d="m105.95,21.2557c3.485,0 5.676,-2.0455 5.846,-5.054l-3.426,0c-0.213,1.3977 -1.133,2.1818 -2.378,2.1818c-1.696,0 -2.795,-1.4233 -2.795,-3.9289c0,-2.4716 1.108,-3.8864 2.795,-3.8864c1.33,0 2.182,0.8778 2.378,2.1818l3.426,0c-0.153,-3.02555 -2.446,-5.01135 -5.863,-5.01135c-3.972,0 -6.4266,2.75285 -6.4266,6.76705c0,3.9801 2.4116,6.75 6.4436,6.75z"/>
  <path id="svg_5" fill="#0E353B" d="m120.087,21.2557c3.238,0 5.42,-1.5767 5.931,-4.0057l-3.357,-0.2216c-0.367,0.9972 -1.304,1.5171 -2.515,1.5171c-1.815,0 -2.966,-1.2017 -2.966,-3.1534l0,-0.0086l8.915,0l0,-0.9971c0,-4.44888 -2.693,-6.64775 -6.153,-6.64775c-3.853,0 -6.35,2.73575 -6.35,6.77555c0,4.1506 2.463,6.7415 6.495,6.7415zm-2.907,-8.1222c0.077,-1.4914 1.211,-2.6846 2.821,-2.6846c1.577,0 2.668,1.125 2.677,2.6846l-5.498,0z"/>
  <path id="svg_6" fill="#0E353B" d="m135.428,7.9091l-2.464,0l0,-3.13636l-3.63,0l0,3.13636l-1.79,0l0,2.7273l1.79,0l0,6.8182c-0.017,2.5653 1.73,3.8352 4.363,3.7244c0.938,-0.0341 1.603,-0.2216 1.969,-0.3409l-0.571,-2.7017c-0.179,0.0341 -0.562,0.1193 -0.903,0.1193c-0.725,0 -1.228,-0.2727 -1.228,-1.2784l0,-6.3409l2.464,0l0,-2.7273z"/>
  <path id="svg_7" fill="#0E353B" d="m137.793,21l3.63,0l0,-7.4062c0,-1.6108 1.176,-2.7188 2.779,-2.7188c0.503,0 1.193,0.0852 1.534,0.196l0,-3.22155c-0.324,-0.07671 -0.776,-0.12785 -1.142,-0.12785c-1.466,0 -2.668,0.85228 -3.145,2.4716l-0.136,0l0,-2.2841l-3.52,0l0,13.0909z"/>
  <path id="svg_8" fill="#0E353B" d="m150.971,21.2472c1.935,0 3.187,-0.8438 3.827,-2.0625l0.102,0l0,1.8153l3.443,0l0,-8.8295c0,-3.11935 -2.642,-4.43185 -5.557,-4.43185c-3.136,0 -5.199,1.5 -5.701,3.88635l3.357,0.2727c0.248,-0.8693 1.023,-1.5085 2.327,-1.5085c1.236,0 1.943,0.6222 1.943,1.696l0,0.0512c0,0.8437 -0.895,0.9545 -3.17,1.1761c-2.591,0.2387 -4.918,1.108 -4.918,4.0313c0,2.5909 1.85,3.9034 4.347,3.9034zm1.04,-2.5057c-1.117,0 -1.918,-0.5199 -1.918,-1.5171c0,-1.0227 0.844,-1.5255 2.122,-1.7045c0.793,-0.1108 2.088,-0.2983 2.523,-0.5881l0,1.3892c0,1.3722 -1.134,2.4205 -2.727,2.4205z"/>
  <path id="svg_9" fill="#0E353B" d="m172.896,7.9091l-3.844,0l-2.71,9.3665l-0.137,0l-2.718,-9.3665l-3.836,0l4.577,13.0909l4.091,0l4.577,-13.0909z"/>
  <path id="svg_10" fill="#0E353B" d="m180.274,21.2557c3.239,0 5.421,-1.5767 5.932,-4.0057l-3.358,-0.2216c-0.366,0.9972 -1.304,1.5171 -2.514,1.5171c-1.816,0 -2.966,-1.2017 -2.966,-3.1534l0,-0.0086l8.915,0l0,-0.9971c0,-4.44888 -2.693,-6.64775 -6.154,-6.64775c-3.852,0 -6.349,2.73575 -6.349,6.77555c0,4.1506 2.463,6.7415 6.494,6.7415zm-2.906,-8.1222c0.077,-1.4914 1.21,-2.6846 2.821,-2.6846c1.577,0 2.668,1.125 2.676,2.6846l-5.497,0z"/>
  <path id="svg_11" fill="#0E353B" d="m192.283,3.54547l-3.631,0l0,17.45453l3.631,0l0,-17.45453z"/>
  <path id="svg_12" fill="#0E353B" d="m195.191,21l3.631,0l0,-13.0909l-3.631,0l0,13.0909zm1.824,-14.7784c1.082,0 1.969,-0.8267 1.969,-1.8409c0,-1.00569 -0.887,-1.83239 -1.969,-1.83239c-1.074,0 -1.96,0.8267 -1.96,1.83239c0,1.0142 0.886,1.8409 1.96,1.8409z"/>
  <path id="svg_13" fill="#0E353B" d="m205.361,13.4318c0.008,-1.6875 1.014,-2.6761 2.48,-2.6761c1.457,0 2.335,0.9545 2.327,2.5568l0,7.6875l3.63,0l0,-8.3352c0,-3.05115 -1.789,-4.92615 -4.517,-4.92615c-1.943,0 -3.349,0.95455 -3.937,2.48015l-0.154,0l0,-2.3097l-3.46,0l0,13.0909l3.631,0l0,-7.5682z"/>
  <path id="svg_14" fill="#0E353B" d="m222.558,26.1818c3.741,0 6.4,-1.7045 6.4,-5.0539l0,-13.2188l-3.605,0l0,2.1989l-0.136,0c-0.486,-1.06537 -1.552,-2.36935 -3.742,-2.36935c-2.872,0 -5.301,2.23296 -5.301,6.69035c0,4.3551 2.361,6.3835 5.31,6.3835c2.088,0 3.255,-1.0483 3.733,-2.1307l0.153,0l0,2.3949c0,1.7983 -1.151,2.4972 -2.727,2.4972c-1.603,0 -2.412,-0.6989 -2.71,-1.4915l-3.358,0.4517c0.434,2.0625 2.454,3.6477 5.983,3.6477zm0.076,-8.0966c-1.781,0 -2.753,-1.4147 -2.753,-3.6733c0,-2.2244 0.955,-3.784 2.753,-3.784c1.764,0 2.753,1.4914 2.753,3.784c0,2.3097 -1.006,3.6733 -2.753,3.6733z"/>
  <path id="svg_15" fill="#FF57B2" d="m236.571,21.2216c1.091,0 2.037,-0.9119 2.045,-2.0455c-0.008,-1.1164 -0.954,-2.0284 -2.045,-2.0284c-1.125,0 -2.054,0.912 -2.045,2.0284c-0.009,1.1336 0.92,2.0455 2.045,2.0455z"/>
  <path id="svg_16" fill="#FF57B2" d="m9.88103,0.55307l-9.88103,11.50453l9.88103,11.5025l2.33637,-3.6772l-6.65843,-7.8273l6.65843,-7.8273l-2.33637,-3.67523zm4.32407,22.73233l4.3364,0l6.8944,-22.52041l-4.3385,0l-6.8923,22.52041zm15.9139,-22.73233l-2.3364,3.6772l6.6584,7.82733l-6.6584,7.8272l2.3364,3.6772l9.881,-11.5025l-9.881,-11.50643z"/>
 </g>
</svg>